<?xml version="1.0" standalone="no"?>
<!DOCTYPE svg PUBLIC "-//W3C//DTD SVG 20010904//EN"
 "http://www.w3.org/TR/2001/REC-SVG-20010904/DTD/svg10.dtd">
<svg version="1.0" xmlns="http://www.w3.org/2000/svg"
 width="512.000000pt" height="512.000000pt" viewBox="0 0 512.000000 512.000000"
 preserveAspectRatio="xMidYMid meet">

<g transform="translate(0.000000,512.000000) scale(0.100000,-0.100000)"
fill="#000000" stroke="none">
<path d="M960 4947 c-49 -16 -133 -102 -148 -153 -7 -26 -12 -108 -12 -218 l0
-176 -137 0 c-165 0 -201 -9 -259 -62 -114 -105 -114 -331 0 -436 58 -53 94
-62 259 -62 l137 0 0 -240 0 -240 -137 0 c-165 0 -201 -9 -259 -62 -114 -105
-114 -331 0 -436 58 -53 94 -62 259 -62 l137 0 0 -240 0 -240 -137 0 c-165 0
-201 -9 -259 -62 -114 -105 -114 -331 0 -436 58 -53 94 -62 259 -62 l137 0 0
-240 0 -240 -137 0 c-165 0 -201 -9 -259 -62 -114 -105 -114 -331 0 -436 58
-53 94 -62 259 -62 l137 0 0 -176 c0 -110 5 -192 12 -218 16 -55 99 -138 154
-154 55 -16 3129 -17 3188 -1 91 25 166 140 166 254 l0 55 138 0 c173 0 214
12 275 80 24 26 49 66 55 88 17 56 17 888 0 946 -16 55 -99 138 -154 154 -24
7 -100 12 -178 12 l-136 0 0 80 0 80 136 0 c78 0 154 5 178 12 55 16 138 99
154 154 17 58 17 890 0 948 -16 55 -99 138 -154 154 -24 7 -100 12 -178 12
l-136 0 0 80 0 80 136 0 c78 0 154 5 178 12 55 16 138 99 154 154 17 58 17
890 0 946 -6 22 -31 62 -55 88 -61 68 -102 80 -275 80 l-138 0 0 55 c0 114
-75 229 -166 254 -55 15 -3145 13 -3194 -2z m3175 -172 l25 -24 0 -2191 0
-2191 -25 -24 -24 -25 -1551 0 -1551 0 -24 25 c-25 24 -25 27 -25 200 l0 175
218 0 c123 0 234 5 256 11 97 27 166 139 166 269 0 130 -69 242 -166 269 -22
6 -133 11 -256 11 l-218 0 0 240 0 240 218 0 c123 0 234 5 256 11 97 27 166
139 166 269 0 130 -69 242 -166 269 -22 6 -133 11 -256 11 l-218 0 0 240 0
240 218 0 c123 0 234 5 256 11 97 27 166 139 166 269 0 130 -69 242 -166 269
-22 6 -133 11 -256 11 l-218 0 0 240 0 240 218 0 c123 0 234 5 256 11 97 27
166 139 166 269 0 130 -69 242 -166 269 -22 6 -133 11 -256 11 l-218 0 0 175
c0 173 0 176 25 200 l24 25 1551 0 1551 0 24 -25z m480 -320 l25 -24 0 -431 0
-431 -25 -24 c-23 -24 -29 -25 -160 -25 l-135 0 0 480 0 480 135 0 c131 0 137
-1 160 -25z m-3214 -228 c27 -21 39 -54 39 -107 0 -53 -12 -86 -39 -107 -12
-9 -123 -12 -442 -13 l-426 0 -22 24 c-13 13 -26 40 -31 60 -10 47 2 102 31
132 l22 24 426 0 c319 -1 430 -4 442 -13z m0 -1040 c27 -21 39 -54 39 -107 0
-53 -12 -86 -39 -107 -12 -9 -123 -12 -442 -13 l-426 0 -22 24 c-13 13 -26 40
-31 60 -10 47 2 102 31 132 l22 24 426 0 c319 -1 430 -4 442 -13z m3214 -172
l25 -24 0 -431 0 -431 -25 -24 c-23 -24 -29 -25 -160 -25 l-135 0 0 480 0 480
135 0 c131 0 137 -1 160 -25z m-3214 -868 c27 -21 39 -54 39 -107 0 -53 -12
-86 -39 -107 -12 -9 -123 -12 -442 -13 l-426 0 -22 24 c-29 30 -41 85 -31 132
5 20 18 47 31 60 l22 24 426 0 c319 -1 430 -4 442 -13z m3214 -572 l25 -24 0
-431 0 -431 -25 -24 c-23 -24 -29 -25 -160 -25 l-135 0 0 480 0 480 135 0
c131 0 137 -1 160 -25z m-3214 -468 c27 -21 39 -54 39 -107 0 -53 -12 -86 -39
-107 -12 -9 -123 -12 -442 -13 l-426 0 -22 24 c-13 13 -26 40 -31 60 -10 47 2
102 31 132 l22 24 426 0 c319 -1 430 -4 442 -13z"/>
<path d="M2580 3584 c-97 -21 -183 -68 -256 -139 -180 -176 -215 -484 -80
-708 23 -37 31 -59 23 -61 -7 -2 -36 -9 -66 -15 -131 -27 -260 -117 -339 -236
-71 -105 -93 -181 -100 -333 -5 -146 8 -220 52 -295 47 -78 101 -109 253 -146
458 -109 848 -109 1306 0 188 45 255 100 292 240 33 124 11 359 -43 466 -78
152 -231 272 -386 305 -28 5 -56 12 -63 14 -8 2 0 24 23 61 135 224 99 531
-82 710 -131 129 -333 181 -534 137z m302 -173 c160 -61 260 -254 228 -438
-16 -95 -50 -165 -112 -227 -77 -77 -142 -100 -278 -100 -85 0 -116 4 -162 23
-161 63 -260 254 -228 439 28 166 121 275 270 317 75 21 207 14 282 -14z
m-355 -898 c67 -23 94 -27 193 -27 99 0 126 4 193 27 90 31 102 32 205 12 166
-33 316 -136 370 -254 23 -48 27 -73 30 -181 7 -215 -11 -242 -188 -285 -218
-52 -365 -68 -610 -68 -245 0 -392 16 -610 68 -177 43 -195 70 -188 285 3 114
6 131 33 185 16 33 50 81 75 106 79 79 265 155 387 158 18 1 68 -11 110 -26z"/>
</g>
</svg>
